<?xml version="1.0" encoding="UTF-8" standalone="no"?>
<!DOCTYPE svg PUBLIC "-//W3C//DTD SVG 1.1//EN"
 "http://www.w3.org/Graphics/SVG/1.1/DTD/svg11.dtd">
<!-- Generated by graphviz version 7.1.0 (20230122.1345)
 -->
<!-- Title: A Pages: 1 -->
<svg width="711pt" height="356pt"
 viewBox="0.00 0.00 711.00 356.00" xmlns="http://www.w3.org/2000/svg" xmlns:xlink="http://www.w3.org/1999/xlink">
<g id="graph0" class="graph" transform="scale(1 1) rotate(0) translate(4 352)">
<title>A</title>
<polygon fill="white" stroke="none" points="-4,4 -4,-352 707,-352 707,4 -4,4"/>
<g id="clust1" class="cluster">
<title>clusterBusiness</title>
<path fill="#fdfcdc" stroke="black" stroke-width="0" d="M308,-193C308,-193 471,-193 471,-193 477,-193 483,-199 483,-205 483,-205 483,-328 483,-328 483,-334 477,-340 471,-340 471,-340 308,-340 308,-340 302,-340 296,-334 296,-328 296,-328 296,-205 296,-205 296,-199 302,-193 308,-193"/>
<text text-anchor="middle" x="389.5" y="-324.8" font-family="Helvetica,Arial,sans-serif" font-size="14.00" fill="#003049">Business/Marketing/Finance</text>
</g>
<g id="clust2" class="cluster">
<title>clusterIntern</title>
<path fill="#fdfcdc" stroke="black" stroke-width="0" d="M20,-73C20,-73 120,-73 120,-73 126,-73 132,-79 132,-85 132,-85 132,-190 132,-190 132,-196 126,-202 120,-202 120,-202 20,-202 20,-202 14,-202 8,-196 8,-190 8,-190 8,-85 8,-85 8,-79 14,-73 20,-73"/>
<text text-anchor="middle" x="70" y="-186.8" font-family="Helvetica,Arial,sans-serif" font-size="14.00" fill="#003049">Intership</text>
</g>
<!-- Drone -->
<g id="node1" class="node">
<title>Drone</title>
<path fill="#fcbf49" stroke="black" stroke-width="0" d="M431,-291C431,-291 347,-291 347,-291 341,-291 335,-285 335,-279 335,-279 335,-267 335,-267 335,-261 341,-255 347,-255 347,-255 431,-255 431,-255 437,-255 443,-261 443,-267 443,-267 443,-279 443,-279 443,-285 437,-291 431,-291"/>
<text text-anchor="middle" x="389" y="-269.3" font-family="Helvetica,Arial,sans-serif" font-size="14.00" fill="#003049">Drone</text>
</g>
<!-- Drone&#45;&gt;Drone -->
<g id="edge14" class="edge">
<title>Drone:e&#45;&gt;Drone:w</title>
<path fill="none" stroke="#f77f00" d="M443,-273C486.75,-285 486.75,-309 389,-309 298.89,-309 291.85,-288.6 325.57,-276.02"/>
<polygon fill="#f77f00" stroke="#f77f00" points="335,-273 326.85,-280.33 330.24,-274.52 325.48,-276.05 325.48,-276.05 325.48,-276.05 330.24,-274.52 324.1,-271.76 335,-273 335,-273"/>
</g>
<!-- Project -->
<g id="node5" class="node">
<title>Project</title>
<path fill="#fdfcdc" stroke="black" stroke-width="0" d="M691,-238C691,-238 523,-238 523,-238 517,-238 511,-232 511,-226 511,-226 511,-52 511,-52 511,-46 517,-40 523,-40 523,-40 691,-40 691,-40 697,-40 703,-46 703,-52 703,-52 703,-226 703,-226 703,-232 697,-238 691,-238"/>
<text text-anchor="start" x="585.5" y="-202.8" font-family="Helvetica,Arial,sans-serif" font-size="14.00" fill="#003049">Project</text>
<path fill="#fcbf49" stroke="none" d="M540.67,-144C540.67,-144 673.33,-144 673.33,-144 679.17,-144 685,-149.83 685,-155.67 685,-155.67 685,-167.33 685,-167.33 685,-173.17 679.17,-179 673.33,-179 673.33,-179 540.67,-179 540.67,-179 534.83,-179 529,-173.17 529,-167.33 529,-167.33 529,-155.67 529,-155.67 529,-149.83 534.83,-144 540.67,-144"/>
<text text-anchor="start" x="564.5" y="-157.8" font-family="Helvetica,Arial,sans-serif" font-size="14.00" fill="#003049">Information AI</text>
<path fill="#fcbf49" stroke="none" d="M540.67,-99C540.67,-99 673.33,-99 673.33,-99 679.17,-99 685,-104.83 685,-110.67 685,-110.67 685,-122.33 685,-122.33 685,-128.17 679.17,-134 673.33,-134 673.33,-134 540.67,-134 540.67,-134 534.83,-134 529,-128.17 529,-122.33 529,-122.33 529,-110.67 529,-110.67 529,-104.83 534.83,-99 540.67,-99"/>
<text text-anchor="start" x="539" y="-112.8" font-family="Helvetica,Arial,sans-serif" font-size="14.00" fill="#003049">3D vision&#45; modeling AI</text>
<path fill="#fcbf49" stroke="none" d="M540.67,-54C540.67,-54 673.33,-54 673.33,-54 679.17,-54 685,-59.83 685,-65.67 685,-65.67 685,-77.33 685,-77.33 685,-83.17 679.17,-89 673.33,-89 673.33,-89 540.67,-89 540.67,-89 534.83,-89 529,-83.17 529,-77.33 529,-77.33 529,-65.67 529,-65.67 529,-59.83 534.83,-54 540.67,-54"/>
<text text-anchor="start" x="569" y="-67.8" font-family="Helvetica,Arial,sans-serif" font-size="14.00" fill="#003049">Trading Algo</text>
</g>
<!-- Drone&#45;&gt;Project -->
<g id="edge13" class="edge">
<title>Drone:e&#45;&gt;Project:w</title>
<path fill="none" stroke="#f77f00" d="M444,-273C465.08,-273 470.91,-263.27 483,-246 508.98,-208.87 469.08,-149.26 501.2,-140.18"/>
<polygon fill="#f77f00" stroke="#f77f00" points="511,-139 501.61,-144.66 506.04,-139.6 501.07,-140.19 501.07,-140.19 501.07,-140.19 506.04,-139.6 500.53,-135.72 511,-139 511,-139"/>
</g>
<!-- Manufacturer -->
<g id="node11" class="node">
<title>Manufacturer</title>
<path fill="#fcbf49" stroke="black" stroke-width="0" d="M649,-292C649,-292 565,-292 565,-292 559,-292 553,-286 553,-280 553,-280 553,-268 553,-268 553,-262 559,-256 565,-256 565,-256 649,-256 649,-256 655,-256 661,-262 661,-268 661,-268 661,-280 661,-280 661,-286 655,-292 649,-292"/>
<text text-anchor="middle" x="607" y="-270.3" font-family="Helvetica,Arial,sans-serif" font-size="14.00" fill="#003049">Manufacturer</text>
</g>
<!-- Drone&#45;&gt;Manufacturer -->
<g id="edge15" class="edge">
<title>Drone:e&#45;&gt;Manufacturer:w</title>
<path fill="none" stroke="#f77f00" d="M444,-273C488.53,-273 502.08,-273.86 542.13,-273.99"/>
<polygon fill="#f77f00" stroke="#f77f00" points="552,-274 541.99,-278.48 547,-273.99 542,-273.98 542,-273.98 542,-273.98 547,-273.99 542.01,-269.48 552,-274 552,-274"/>
</g>
<!-- Laser -->
<g id="node2" class="node">
<title>Laser</title>
<path fill="#fcbf49" stroke="black" stroke-width="0" d="M431,-237C431,-237 347,-237 347,-237 341,-237 335,-231 335,-225 335,-225 335,-213 335,-213 335,-207 341,-201 347,-201 347,-201 431,-201 431,-201 437,-201 443,-207 443,-213 443,-213 443,-225 443,-225 443,-231 437,-237 431,-237"/>
<text text-anchor="middle" x="389" y="-215.3" font-family="Helvetica,Arial,sans-serif" font-size="14.00" fill="#003049">Laser</text>
</g>
<!-- Laser&#45;&gt;Project -->
<g id="edge11" class="edge">
<title>Laser:e&#45;&gt;Project:w</title>
<path fill="none" stroke="#f77f00" d="M444,-219C468.2,-219 467.54,-199.62 483,-181 494.65,-166.98 491.04,-148.02 501.31,-141.4"/>
<polygon fill="#f77f00" stroke="#f77f00" points="511,-139 502.37,-145.77 506.15,-140.2 501.29,-141.4 501.29,-141.4 501.29,-141.4 506.15,-140.2 500.21,-137.03 511,-139 511,-139"/>
</g>
<!-- Laser&#45;&gt;Manufacturer -->
<g id="edge12" class="edge">
<title>Laser:e&#45;&gt;Manufacturer:w</title>
<path fill="none" stroke="#f77f00" d="M444,-219C494.39,-219 497.88,-267.14 542.22,-273.34"/>
<polygon fill="#f77f00" stroke="#f77f00" points="552,-274 541.72,-277.82 547.01,-273.67 542.02,-273.33 542.02,-273.33 542.02,-273.33 547.01,-273.67 542.32,-268.84 552,-274 552,-274"/>
</g>
<!-- phisaver -->
<g id="node3" class="node">
<title>phisaver</title>
<path fill="#fcbf49" stroke="black" stroke-width="0" d="M112,-117C112,-117 28,-117 28,-117 22,-117 16,-111 16,-105 16,-105 16,-93 16,-93 16,-87 22,-81 28,-81 28,-81 112,-81 112,-81 118,-81 124,-87 124,-93 124,-93 124,-105 124,-105 124,-111 118,-117 112,-117"/>
<text text-anchor="middle" x="70" y="-95.3" font-family="Helvetica,Arial,sans-serif" font-size="14.00" fill="#003049">Phisaver</text>
</g>
<!-- Flutter -->
<g id="node8" class="node">
<title>Flutter</title>
<path fill="#fcbf49" stroke="black" stroke-width="0" d="M256,-90C256,-90 172,-90 172,-90 166,-90 160,-84 160,-78 160,-78 160,-66 160,-66 160,-60 166,-54 172,-54 172,-54 256,-54 256,-54 262,-54 268,-60 268,-66 268,-66 268,-78 268,-78 268,-84 262,-90 256,-90"/>
<text text-anchor="middle" x="214" y="-68.3" font-family="Helvetica,Arial,sans-serif" font-size="14.00" fill="#003049">Flutter</text>
</g>
<!-- phisaver&#45;&gt;Flutter -->
<g id="edge3" class="edge">
<title>phisaver:e&#45;&gt;Flutter:w</title>
<path fill="none" stroke="#f77f00" d="M125,-99C140.66,-99 141.11,-81.85 150.59,-74.89"/>
<polygon fill="#f77f00" stroke="#f77f00" points="160,-72 151.76,-79.24 155.22,-73.47 150.44,-74.94 150.44,-74.94 150.44,-74.94 155.22,-73.47 149.12,-70.63 160,-72 160,-72"/>
</g>
<!-- Forecasting -->
<g id="node9" class="node">
<title>Forecasting</title>
<path fill="#fcbf49" stroke="black" stroke-width="0" d="M256,-36C256,-36 172,-36 172,-36 166,-36 160,-30 160,-24 160,-24 160,-12 160,-12 160,-6 166,0 172,0 172,0 256,0 256,0 262,0 268,-6 268,-12 268,-12 268,-24 268,-24 268,-30 262,-36 256,-36"/>
<text text-anchor="middle" x="214" y="-14.3" font-family="Helvetica,Arial,sans-serif" font-size="14.00" fill="#003049">Forecasting</text>
</g>
<!-- phisaver&#45;&gt;Forecasting -->
<g id="edge4" class="edge">
<title>phisaver:e&#45;&gt;Forecasting:w</title>
<path fill="none" stroke="#f77f00" d="M125,-99C160.23,-99 128.75,-33.62 150.44,-20.34"/>
<polygon fill="#f77f00" stroke="#f77f00" points="160,-18 151.35,-24.74 155.14,-19.19 150.29,-20.37 150.29,-20.37 150.29,-20.37 155.14,-19.19 149.22,-16 160,-18 160,-18"/>
</g>
<!-- ML -->
<g id="node10" class="node">
<title>ML</title>
<path fill="#fcbf49" stroke="black" stroke-width="0" d="M256,-198C256,-198 172,-198 172,-198 166,-198 160,-192 160,-186 160,-186 160,-174 160,-174 160,-168 166,-162 172,-162 172,-162 256,-162 256,-162 262,-162 268,-168 268,-174 268,-174 268,-186 268,-186 268,-192 262,-198 256,-198"/>
<text text-anchor="middle" x="214" y="-176.3" font-family="Helvetica,Arial,sans-serif" font-size="14.00" fill="#003049">ML</text>
</g>
<!-- phisaver&#45;&gt;ML -->
<g id="edge5" class="edge">
<title>phisaver:e&#45;&gt;ML:w</title>
<path fill="none" stroke="#f77f00" d="M125,-99C160.23,-99 128.75,-164.38 150.44,-177.66"/>
<polygon fill="#f77f00" stroke="#f77f00" points="160,-180 149.22,-182 155.14,-178.81 150.29,-177.63 150.29,-177.63 150.29,-177.63 155.14,-178.81 151.35,-173.26 160,-180 160,-180"/>
</g>
<!-- xplainable -->
<g id="node4" class="node">
<title>xplainable</title>
<path fill="#fcbf49" stroke="black" stroke-width="0" d="M112,-171C112,-171 28,-171 28,-171 22,-171 16,-165 16,-159 16,-159 16,-147 16,-147 16,-141 22,-135 28,-135 28,-135 112,-135 112,-135 118,-135 124,-141 124,-147 124,-147 124,-159 124,-159 124,-165 118,-171 112,-171"/>
<text text-anchor="middle" x="70" y="-149.3" font-family="Helvetica,Arial,sans-serif" font-size="14.00" fill="#003049">Xplainable</text>
</g>
<!-- xplainable&#45;&gt;ML -->
<g id="edge9" class="edge">
<title>xplainable:e&#45;&gt;ML:w</title>
<path fill="none" stroke="#f77f00" d="M125,-153C140.66,-153 141.11,-170.15 150.59,-177.11"/>
<polygon fill="#f77f00" stroke="#f77f00" points="160,-180 149.12,-181.37 155.22,-178.53 150.44,-177.06 150.44,-177.06 150.44,-177.06 155.22,-178.53 151.76,-172.76 160,-180 160,-180"/>
</g>
<!-- FASTAI -->
<g id="node6" class="node">
<title>FASTAI</title>
<path fill="#fcbf49" stroke="black" stroke-width="0" d="M256,-144C256,-144 172,-144 172,-144 166,-144 160,-138 160,-132 160,-132 160,-120 160,-120 160,-114 166,-108 172,-108 172,-108 256,-108 256,-108 262,-108 268,-114 268,-120 268,-120 268,-132 268,-132 268,-138 262,-144 256,-144"/>
<text text-anchor="middle" x="214" y="-122.3" font-family="Helvetica,Arial,sans-serif" font-size="14.00" fill="#003049">FASTAI</text>
</g>
<!-- Thesis -->
<g id="node7" class="node">
<title>Thesis</title>
<path fill="#fcbf49" stroke="black" stroke-width="0" d="M431,-136C431,-136 347,-136 347,-136 341,-136 335,-130 335,-124 335,-124 335,-112 335,-112 335,-106 341,-100 347,-100 347,-100 431,-100 431,-100 437,-100 443,-106 443,-112 443,-112 443,-124 443,-124 443,-130 437,-136 431,-136"/>
<text text-anchor="middle" x="389" y="-114.3" font-family="Helvetica,Arial,sans-serif" font-size="14.00" fill="#003049">Thesis</text>
</g>
<!-- FASTAI&#45;&gt;Thesis -->
<g id="edge1" class="edge">
<title>FASTAI:e&#45;&gt;Thesis:w</title>
<path fill="none" stroke="#f77f00" d="M268,-126C293.97,-126 302.45,-119.82 324.18,-118.32"/>
<polygon fill="#f77f00" stroke="#f77f00" points="334,-118 324.15,-122.83 329,-118.16 324.01,-118.33 324.01,-118.33 324.01,-118.33 329,-118.16 323.86,-113.83 334,-118 334,-118"/>
</g>
<!-- Thesis&#45;&gt;Project -->
<g id="edge2" class="edge">
<title>Thesis:e&#45;&gt;Project:w</title>
<path fill="none" stroke="#f77f00" d="M444,-118C477.84,-118 488.66,-116.36 518.19,-116.05"/>
<polygon fill="#f77f00" stroke="#f77f00" points="528,-116 518.02,-120.55 523,-116.03 518,-116.05 518,-116.05 518,-116.05 523,-116.03 517.98,-111.55 528,-116 528,-116"/>
</g>
<!-- Flutter&#45;&gt;Project -->
<g id="edge7" class="edge">
<title>Flutter:e&#45;&gt;Project:w</title>
<path fill="none" stroke="#f77f00" d="M268,-72C363.93,-72 391.29,-62.87 483,-91 501.28,-96.61 504.46,-110.31 518.37,-114.65"/>
<polygon fill="#f77f00" stroke="#f77f00" points="528,-116 517.47,-119.07 523.05,-115.31 518.1,-114.62 518.1,-114.62 518.1,-114.62 523.05,-115.31 518.72,-110.16 528,-116 528,-116"/>
</g>
<!-- Flutter&#45;&gt;Thesis -->
<g id="edge8" class="edge">
<title>Flutter:e&#45;&gt;Thesis:w</title>
<path fill="none" stroke="#f77f00" d="M268,-72C300.12,-72 298.94,-109.13 324.3,-116.67"/>
<polygon fill="#f77f00" stroke="#f77f00" points="334,-118 323.48,-121.1 329.05,-117.32 324.09,-116.64 324.09,-116.64 324.09,-116.64 329.05,-117.32 324.7,-112.19 334,-118 334,-118"/>
</g>
<!-- Forecasting&#45;&gt;Project -->
<g id="edge6" class="edge">
<title>Forecasting:e&#45;&gt;Project:w</title>
<path fill="none" stroke="#f77f00" d="M268,-18C323.97,-18 454.82,-65.75 518.4,-70.6"/>
<polygon fill="#f77f00" stroke="#f77f00" points="528,-71 517.82,-75.08 523,-70.79 518.01,-70.59 518.01,-70.59 518.01,-70.59 523,-70.79 518.19,-66.09 528,-71 528,-71"/>
</g>
<!-- ML&#45;&gt;Project -->
<g id="edge10" class="edge">
<title>ML:e&#45;&gt;Project:w</title>
<path fill="none" stroke="#f77f00" d="M268,-180C364.81,-180 387.86,-162.93 483,-145 491.6,-143.38 495.59,-141.15 501.39,-139.92"/>
<polygon fill="#f77f00" stroke="#f77f00" points="511,-139 501.47,-144.43 506.02,-139.47 501.05,-139.95 501.05,-139.95 501.05,-139.95 506.02,-139.47 500.62,-135.47 511,-139 511,-139"/>
</g>
</g>
</svg>
