<?xml version="1.0" encoding="UTF-8" standalone="no"?>
<!DOCTYPE svg PUBLIC "-//W3C//DTD SVG 1.1//EN"
 "http://www.w3.org/Graphics/SVG/1.1/DTD/svg11.dtd">
<!-- Generated by graphviz version 7.1.0 (20230122.1345)
 -->
<!-- Title: A Pages: 1 -->
<svg width="697pt" height="628pt"
 viewBox="0.00 0.00 697.37 627.54" xmlns="http://www.w3.org/2000/svg" xmlns:xlink="http://www.w3.org/1999/xlink">
<g id="graph0" class="graph" transform="scale(1 1) rotate(0) translate(4 623.54)">
<title>A</title>
<polygon fill="white" stroke="none" points="-4,4 -4,-623.54 693.37,-623.54 693.37,4 -4,4"/>
<g id="clust1" class="cluster">
<title>cluster_Project</title>
<polygon fill="#f1faf0" stroke="black" points="513.37,-286 513.37,-469 681.37,-469 681.37,-286 513.37,-286"/>
<text text-anchor="middle" x="597.37" y="-453.8" font-family="Helvetica,Arial,sans-serif" font-size="14.00" fill="#002855">Project</text>
</g>
<g id="clust2" class="cluster">
<title>clusterBusiness</title>
<polygon fill="#f1faf0" stroke="black" points="163.09,-8 163.09,-214 349.98,-214 349.98,-8 163.09,-8"/>
<text text-anchor="middle" x="256.54" y="-198.8" font-family="Helvetica,Arial,sans-serif" font-size="14.00" fill="#002855">Business/Marketing/Finance</text>
</g>
<g id="clust3" class="cluster">
<title>clusterIntern</title>
<polygon fill="#f1faf0" stroke="black" points="8,-190 8,-457 135.99,-457 135.99,-190 8,-190"/>
<text text-anchor="middle" x="72" y="-441.8" font-family="Helvetica,Arial,sans-serif" font-size="14.00" fill="#002855">Intership</text>
</g>
<!-- InfoAI -->
<g id="node1" class="node">
<title>InfoAI</title>
<polygon fill="#f6ae2d" stroke="black" points="647.87,-330 546.87,-330 546.87,-294 647.87,-294 647.87,-330"/>
<text text-anchor="middle" x="597.37" y="-308.3" font-family="Helvetica,Arial,sans-serif" font-size="14.00" fill="#002855">Information AI</text>
</g>
<!-- 3D -->
<g id="node2" class="node">
<title>3D</title>
<polygon fill="#f6ae2d" stroke="black" points="673.37,-384 521.37,-384 521.37,-348 673.37,-348 673.37,-384"/>
<text text-anchor="middle" x="597.37" y="-362.3" font-family="Helvetica,Arial,sans-serif" font-size="14.00" fill="#002855">3D vision&#45; modeling AI</text>
</g>
<!-- stocks -->
<g id="node3" class="node">
<title>stocks</title>
<polygon fill="#f6ae2d" stroke="black" points="643.37,-438 551.37,-438 551.37,-402 643.37,-402 643.37,-438"/>
<text text-anchor="middle" x="597.37" y="-416.3" font-family="Helvetica,Arial,sans-serif" font-size="14.00" fill="#002855">Trading Algo</text>
</g>
<!-- Drone -->
<g id="node4" class="node">
<title>Drone</title>
<ellipse fill="#f6ae2d" stroke="black" cx="256.54" cy="-145" rx="34.4" ry="34.4"/>
<ellipse fill="none" stroke="black" cx="256.54" cy="-145" rx="38.39" ry="38.39"/>
<text text-anchor="middle" x="256.54" y="-141.3" font-family="Helvetica,Arial,sans-serif" font-size="14.00" fill="#002855">Drone</text>
</g>
<!-- Business -->
<g id="node13" class="node">
<title>Business</title>
<ellipse fill="#f6ae2d" stroke="black" cx="435.23" cy="-145" rx="46.28" ry="46.28"/>
<ellipse fill="none" stroke="black" cx="435.23" cy="-145" rx="50.29" ry="50.29"/>
<text text-anchor="middle" x="435.23" y="-141.3" font-family="Helvetica,Arial,sans-serif" font-size="14.00" fill="#002855">Business</text>
</g>
<!-- Drone&#45;&gt;Business -->
<g id="edge12" class="edge">
<title>Drone:e&#45;&gt;Business:w</title>
<path fill="none" stroke="black" d="M296.54,-145C332.35,-145 343.72,-145 375.15,-145"/>
<polygon fill="black" stroke="black" points="385.08,-145 375.08,-149.5 380.08,-145 375.08,-145 375.08,-145 375.08,-145 380.08,-145 375.08,-140.5 385.08,-145 385.08,-145"/>
</g>
<!-- Laser -->
<g id="node5" class="node">
<title>Laser</title>
<ellipse fill="#f6ae2d" stroke="black" cx="256.54" cy="-52" rx="32.49" ry="32.49"/>
<ellipse fill="none" stroke="black" cx="256.54" cy="-52" rx="36.49" ry="36.49"/>
<text text-anchor="middle" x="256.54" y="-48.3" font-family="Helvetica,Arial,sans-serif" font-size="14.00" fill="#002855">Laser</text>
</g>
<!-- Laser&#45;&gt;Business -->
<g id="edge13" class="edge">
<title>Laser:e&#45;&gt;Business</title>
<path fill="none" stroke="black" d="M294.54,-52C332.88,-52 368.73,-76.59 394.5,-100.47"/>
<polygon fill="black" stroke="black" points="401.5,-107.17 391.16,-103.51 397.89,-103.72 394.28,-100.26 394.28,-100.26 394.28,-100.26 397.89,-103.72 397.39,-97.01 401.5,-107.17 401.5,-107.17"/>
</g>
<!-- phisaver -->
<g id="node6" class="node">
<title>phisaver</title>
<ellipse fill="#f6ae2d" stroke="black" cx="72" cy="-377" rx="44.71" ry="44.71"/>
<ellipse fill="none" stroke="black" cx="72" cy="-377" rx="48.69" ry="48.69"/>
<text text-anchor="middle" x="72" y="-373.3" font-family="Helvetica,Arial,sans-serif" font-size="14.00" fill="#002855">Phisaver</text>
</g>
<!-- Flutter -->
<g id="node10" class="node">
<title>Flutter</title>
<ellipse fill="#f6ae2d" stroke="black" cx="256.54" cy="-441" rx="35.97" ry="35.97"/>
<ellipse fill="none" stroke="black" cx="256.54" cy="-441" rx="40" ry="40"/>
<text text-anchor="middle" x="256.54" y="-437.3" font-family="Helvetica,Arial,sans-serif" font-size="14.00" fill="#002855">Flutter</text>
</g>
<!-- phisaver&#45;&gt;Flutter -->
<g id="edge4" class="edge">
<title>phisaver:e&#45;&gt;Flutter:w</title>
<path fill="none" stroke="black" d="M122,-377C168.83,-377 165.89,-432.32 205.72,-440.1"/>
<polygon fill="black" stroke="black" points="215.54,-441 205.16,-444.56 210.56,-440.54 205.58,-440.08 205.58,-440.08 205.58,-440.08 210.56,-440.54 205.99,-435.6 215.54,-441 215.54,-441"/>
</g>
<!-- Forecasting -->
<g id="node11" class="node">
<title>Forecasting</title>
<ellipse fill="#f6ae2d" stroke="black" cx="256.54" cy="-559" rx="56.59" ry="56.59"/>
<ellipse fill="none" stroke="black" cx="256.54" cy="-559" rx="60.59" ry="60.59"/>
<text text-anchor="middle" x="256.54" y="-555.3" font-family="Helvetica,Arial,sans-serif" font-size="14.00" fill="#002855">Forecasting</text>
</g>
<!-- phisaver&#45;&gt;Forecasting -->
<g id="edge5" class="edge">
<title>phisaver:e&#45;&gt;Forecasting:w</title>
<path fill="none" stroke="black" d="M122,-377C205.5,-377 115.48,-544.38 184.75,-558.11"/>
<polygon fill="black" stroke="black" points="194.54,-559 184.17,-562.57 189.56,-558.55 184.58,-558.09 184.58,-558.09 184.58,-558.09 189.56,-558.55 184.99,-553.61 194.54,-559 194.54,-559"/>
</g>
<!-- ML -->
<g id="node12" class="node">
<title>ML</title>
<ellipse fill="#f6ae2d" stroke="black" cx="256.54" cy="-249" rx="23.31" ry="23.31"/>
<ellipse fill="none" stroke="black" cx="256.54" cy="-249" rx="27.3" ry="27.3"/>
<text text-anchor="middle" x="256.54" y="-245.3" font-family="Helvetica,Arial,sans-serif" font-size="14.00" fill="#002855">ML</text>
</g>
<!-- phisaver&#45;&gt;ML -->
<g id="edge6" class="edge">
<title>phisaver:e&#45;&gt;ML</title>
<path fill="none" stroke="black" d="M122,-377C166.37,-377 131.04,-316.69 163.09,-286 178.72,-271.03 201.17,-261.86 220.03,-256.39"/>
<polygon fill="black" stroke="black" points="229.51,-253.85 221.01,-260.78 224.68,-255.14 219.85,-256.43 219.85,-256.43 219.85,-256.43 224.68,-255.14 218.69,-252.09 229.51,-253.85 229.51,-253.85"/>
</g>
<!-- xplainable -->
<g id="node7" class="node">
<title>xplainable</title>
<ellipse fill="#f6ae2d" stroke="black" cx="72" cy="-254" rx="51.99" ry="51.99"/>
<ellipse fill="none" stroke="black" cx="72" cy="-254" rx="55.99" ry="55.99"/>
<text text-anchor="middle" x="72" y="-250.3" font-family="Helvetica,Arial,sans-serif" font-size="14.00" fill="#002855">Xplainable</text>
</g>
<!-- xplainable&#45;&gt;ML -->
<g id="edge7" class="edge">
<title>xplainable:e&#45;&gt;ML</title>
<path fill="none" stroke="black" d="M129,-254C159.33,-254 193.73,-252.55 219,-251.21"/>
<polygon fill="black" stroke="black" points="228.89,-250.66 219.15,-255.71 223.89,-250.94 218.9,-251.21 218.9,-251.21 218.9,-251.21 223.89,-250.94 218.65,-246.72 228.89,-250.66 228.89,-250.66"/>
</g>
<!-- FASTAI -->
<g id="node8" class="node">
<title>FASTAI</title>
<ellipse fill="#f6ae2d" stroke="black" cx="256.54" cy="-339" rx="40.11" ry="40.11"/>
<ellipse fill="none" stroke="black" cx="256.54" cy="-339" rx="44.09" ry="44.09"/>
<text text-anchor="middle" x="256.54" y="-335.3" font-family="Helvetica,Arial,sans-serif" font-size="14.00" fill="#002855">FASTAI</text>
</g>
<!-- FASTAI&#45;&gt;InfoAI -->
<g id="edge2" class="edge">
<title>FASTAI:e&#45;&gt;InfoAI:w</title>
<path fill="none" stroke="black" d="M301.54,-339C339.26,-339 347.66,-328.75 385.08,-324 452.63,-315.43 472.13,-312.3 535.67,-312.02"/>
<polygon fill="black" stroke="black" points="545.37,-312 535.38,-316.52 540.37,-312.01 535.37,-312.02 535.37,-312.02 535.37,-312.02 540.37,-312.01 535.36,-307.52 545.37,-312 545.37,-312"/>
</g>
<!-- Thesis -->
<g id="node9" class="node">
<title>Thesis</title>
<ellipse fill="#f6ae2d" stroke="black" cx="435.23" cy="-373" rx="36.3" ry="36.3"/>
<ellipse fill="none" stroke="black" cx="435.23" cy="-373" rx="40.29" ry="40.29"/>
<text text-anchor="middle" x="435.23" y="-369.3" font-family="Helvetica,Arial,sans-serif" font-size="14.00" fill="#002855">Thesis</text>
</g>
<!-- FASTAI&#45;&gt;Thesis -->
<g id="edge1" class="edge">
<title>FASTAI:e&#45;&gt;Thesis</title>
<path fill="none" stroke="black" d="M301.54,-339C330.95,-339 362.92,-346.94 388.11,-355.14"/>
<polygon fill="black" stroke="black" points="397.41,-358.28 386.49,-359.35 392.67,-356.68 387.93,-355.08 387.93,-355.08 387.93,-355.08 392.67,-356.68 389.37,-350.82 397.41,-358.28 397.41,-358.28"/>
</g>
<!-- Thesis&#45;&gt;3D -->
<g id="edge3" class="edge">
<title>Thesis:e&#45;&gt;3D:w</title>
<path fill="none" stroke="black" d="M477.23,-373C492.86,-373 498.69,-368.47 510.5,-366.7"/>
<polygon fill="black" stroke="black" points="520.37,-366 510.71,-371.19 515.38,-366.35 510.4,-366.7 510.4,-366.7 510.4,-366.7 515.38,-366.35 510.08,-362.22 520.37,-366 520.37,-366"/>
</g>
<!-- Flutter&#45;&gt;3D -->
<g id="edge10" class="edge">
<title>Flutter:e&#45;&gt;3D:w</title>
<path fill="none" stroke="black" d="M297.54,-441C381.44,-441 414.12,-466.32 485.37,-422 506.98,-408.56 495.36,-376.32 511.03,-367.99"/>
<polygon fill="black" stroke="black" points="520.37,-366 511.53,-372.48 515.48,-367.04 510.59,-368.08 510.59,-368.08 510.59,-368.08 515.48,-367.04 509.65,-363.68 520.37,-366 520.37,-366"/>
</g>
<!-- Flutter&#45;&gt;Thesis -->
<g id="edge11" class="edge">
<title>Flutter:e&#45;&gt;Thesis:w</title>
<path fill="none" stroke="black" d="M297.54,-441C346.14,-441 341.95,-381.98 383.34,-373.91"/>
<polygon fill="black" stroke="black" points="393.23,-373 383.68,-378.4 388.25,-373.46 383.27,-373.92 383.27,-373.92 383.27,-373.92 388.25,-373.46 382.86,-369.44 393.23,-373 393.23,-373"/>
</g>
<!-- Forecasting&#45;&gt;stocks -->
<g id="edge9" class="edge">
<title>Forecasting:e&#45;&gt;stocks:w</title>
<path fill="none" stroke="black" d="M318.54,-559C375.44,-559 478.67,-434.27 540.45,-421.12"/>
<polygon fill="black" stroke="black" points="550.37,-420 540.94,-425.59 545.4,-420.56 540.44,-421.12 540.44,-421.12 540.44,-421.12 545.4,-420.56 539.93,-416.65 550.37,-420 550.37,-420"/>
</g>
<!-- ML&#45;&gt;3D -->
<g id="edge8" class="edge">
<title>ML:e&#45;&gt;3D:w</title>
<path fill="none" stroke="black" d="M285.54,-249C380.4,-249 408.03,-269.07 485.37,-324 501.93,-335.76 498.28,-357.21 510.84,-363.93"/>
<polygon fill="black" stroke="black" points="520.37,-366 509.65,-368.28 515.49,-364.94 510.6,-363.88 510.6,-363.88 510.6,-363.88 515.49,-364.94 511.56,-359.48 520.37,-366 520.37,-366"/>
</g>
<!-- Business&#45;&gt;InfoAI -->
<g id="edge14" class="edge">
<title>Business:e&#45;&gt;InfoAI:s</title>
<path fill="none" stroke="black" d="M485.37,-145C564.64,-145 594.99,-205.49 597.24,-283.41"/>
<polygon fill="black" stroke="black" points="597.37,-286 592.35,-276.25 597.11,-281.01 596.85,-276.01 596.85,-276.01 596.85,-276.01 597.11,-281.01 601.34,-275.78 597.37,-286 597.37,-286"/>
</g>
</g>
</svg>
