<?xml version="1.0" encoding="UTF-8" standalone="no"?>
<!DOCTYPE svg PUBLIC "-//W3C//DTD SVG 1.1//EN"
 "http://www.w3.org/Graphics/SVG/1.1/DTD/svg11.dtd">
<!-- Generated by graphviz version 2.43.0 (0)
 -->
<!-- Title: A Pages: 1 -->
<svg width="712pt" height="356pt"
 viewBox="0.00 0.00 712.00 356.00" xmlns="http://www.w3.org/2000/svg" xmlns:xlink="http://www.w3.org/1999/xlink">
<g id="graph0" class="graph" transform="scale(1 1) rotate(0) translate(4 352)">
<title>A</title>
<polygon fill="white" stroke="transparent" points="-4,4 -4,-352 708,-352 708,4 -4,4"/>
<g id="clust1" class="cluster">
<title>clusterBusiness</title>
<path fill="#fdfcdc" stroke="black" stroke-width="0" d="M308,-193C308,-193 472,-193 472,-193 478,-193 484,-199 484,-205 484,-205 484,-328 484,-328 484,-334 478,-340 472,-340 472,-340 308,-340 308,-340 302,-340 296,-334 296,-328 296,-328 296,-205 296,-205 296,-199 302,-193 308,-193"/>
<text text-anchor="middle" x="390" y="-324.8" font-family="Helvetica,Arial,sans-serif" font-size="14.00" fill="#003049">Business/Marketing/Finance</text>
</g>
<g id="clust2" class="cluster">
<title>clusterIntern</title>
<path fill="#fdfcdc" stroke="black" stroke-width="0" d="M20,-46C20,-46 120,-46 120,-46 126,-46 132,-52 132,-58 132,-58 132,-109 132,-109 132,-115 126,-121 120,-121 120,-121 20,-121 20,-121 14,-121 8,-115 8,-109 8,-109 8,-58 8,-58 8,-52 14,-46 20,-46"/>
<text text-anchor="middle" x="70" y="-105.8" font-family="Helvetica,Arial,sans-serif" font-size="14.00" fill="#003049">Intership</text>
</g>
<!-- Drone -->
<g id="node1" class="node">
<title>Drone</title>
<path fill="#fcbf49" stroke="black" stroke-width="0" d="M432,-291C432,-291 348,-291 348,-291 342,-291 336,-285 336,-279 336,-279 336,-267 336,-267 336,-261 342,-255 348,-255 348,-255 432,-255 432,-255 438,-255 444,-261 444,-267 444,-267 444,-279 444,-279 444,-285 438,-291 432,-291"/>
<text text-anchor="middle" x="390" y="-269.3" font-family="Helvetica,Arial,sans-serif" font-size="14.00" fill="#003049">Drone</text>
</g>
<!-- Drone&#45;&gt;Drone -->
<g id="edge13" class="edge">
<title>Drone:e&#45;&gt;Drone:w</title>
<path fill="none" stroke="#003049" d="M444,-273C488,-285 488,-309 390,-309 300.04,-309 292.66,-288.78 326.09,-276.18"/>
<polygon fill="#003049" stroke="#003049" points="336,-273 327.85,-280.34 331.24,-274.53 326.48,-276.05 326.48,-276.05 326.48,-276.05 331.24,-274.53 325.1,-271.77 336,-273 336,-273"/>
</g>
<!-- Project -->
<g id="node4" class="node">
<title>Project</title>
<path fill="#fdfcdc" stroke="black" stroke-width="0" d="M692,-238C692,-238 524,-238 524,-238 518,-238 512,-232 512,-226 512,-226 512,-52 512,-52 512,-46 518,-40 524,-40 524,-40 692,-40 692,-40 698,-40 704,-46 704,-52 704,-52 704,-226 704,-226 704,-232 698,-238 692,-238"/>
<text text-anchor="start" x="586.5" y="-202.8" font-family="Helvetica,Arial,sans-serif" font-size="14.00" fill="#003049">Project</text>
<path fill="#fcbf49" stroke="transparent" d="M541.67,-144C541.67,-144 674.33,-144 674.33,-144 680.17,-144 686,-149.83 686,-155.67 686,-155.67 686,-167.33 686,-167.33 686,-173.17 680.17,-179 674.33,-179 674.33,-179 541.67,-179 541.67,-179 535.83,-179 530,-173.17 530,-167.33 530,-167.33 530,-155.67 530,-155.67 530,-149.83 535.83,-144 541.67,-144"/>
<text text-anchor="start" x="565.5" y="-157.8" font-family="Helvetica,Arial,sans-serif" font-size="14.00" fill="#003049">Information AI</text>
<path fill="#fcbf49" stroke="transparent" d="M541.67,-99C541.67,-99 674.33,-99 674.33,-99 680.17,-99 686,-104.83 686,-110.67 686,-110.67 686,-122.33 686,-122.33 686,-128.17 680.17,-134 674.33,-134 674.33,-134 541.67,-134 541.67,-134 535.83,-134 530,-128.17 530,-122.33 530,-122.33 530,-110.67 530,-110.67 530,-104.83 535.83,-99 541.67,-99"/>
<text text-anchor="start" x="540" y="-112.8" font-family="Helvetica,Arial,sans-serif" font-size="14.00" fill="#003049">3D vision&#45; modeling AI</text>
<path fill="#fcbf49" stroke="transparent" d="M541.67,-54C541.67,-54 674.33,-54 674.33,-54 680.17,-54 686,-59.83 686,-65.67 686,-65.67 686,-77.33 686,-77.33 686,-83.17 680.17,-89 674.33,-89 674.33,-89 541.67,-89 541.67,-89 535.83,-89 530,-83.17 530,-77.33 530,-77.33 530,-65.67 530,-65.67 530,-59.83 535.83,-54 541.67,-54"/>
<text text-anchor="start" x="570" y="-67.8" font-family="Helvetica,Arial,sans-serif" font-size="14.00" fill="#003049">Trading Algo</text>
</g>
<!-- Drone&#45;&gt;Project -->
<g id="edge12" class="edge">
<title>Drone:e&#45;&gt;Project:w</title>
<path fill="none" stroke="#003049" d="M445,-273C466.08,-273 471.91,-263.27 484,-246 509.87,-209.03 470.42,-149.77 501.79,-140.3"/>
<polygon fill="#003049" stroke="#003049" points="512,-139 502.65,-144.72 507.04,-139.63 502.08,-140.26 502.08,-140.26 502.08,-140.26 507.04,-139.63 501.51,-135.8 512,-139 512,-139"/>
</g>
<!-- Manufacturer -->
<g id="node10" class="node">
<title>Manufacturer</title>
<path fill="#fcbf49" stroke="black" stroke-width="0" d="M650,-292C650,-292 566,-292 566,-292 560,-292 554,-286 554,-280 554,-280 554,-268 554,-268 554,-262 560,-256 566,-256 566,-256 650,-256 650,-256 656,-256 662,-262 662,-268 662,-268 662,-280 662,-280 662,-286 656,-292 650,-292"/>
<text text-anchor="middle" x="608" y="-270.3" font-family="Helvetica,Arial,sans-serif" font-size="14.00" fill="#003049">Manufacturer</text>
</g>
<!-- Drone&#45;&gt;Manufacturer -->
<g id="edge14" class="edge">
<title>Drone:e&#45;&gt;Manufacturer:w</title>
<path fill="none" stroke="#003049" d="M445,-273C489.44,-273 503.02,-273.86 542.88,-273.98"/>
<polygon fill="#003049" stroke="#003049" points="553,-274 542.99,-278.48 548,-273.99 543,-273.98 543,-273.98 543,-273.98 548,-273.99 543.01,-269.48 553,-274 553,-274"/>
</g>
<!-- Laser -->
<g id="node2" class="node">
<title>Laser</title>
<path fill="#fcbf49" stroke="black" stroke-width="0" d="M432,-237C432,-237 348,-237 348,-237 342,-237 336,-231 336,-225 336,-225 336,-213 336,-213 336,-207 342,-201 348,-201 348,-201 432,-201 432,-201 438,-201 444,-207 444,-213 444,-213 444,-225 444,-225 444,-231 438,-237 432,-237"/>
<text text-anchor="middle" x="390" y="-215.3" font-family="Helvetica,Arial,sans-serif" font-size="14.00" fill="#003049">Laser</text>
</g>
<!-- Laser&#45;&gt;Project -->
<g id="edge10" class="edge">
<title>Laser:e&#45;&gt;Project:w</title>
<path fill="none" stroke="#003049" d="M445,-219C469.2,-219 468.54,-199.62 484,-181 495.54,-167.11 492.11,-148.38 502.02,-141.59"/>
<polygon fill="#003049" stroke="#003049" points="512,-139 503.45,-145.87 507.16,-140.26 502.32,-141.51 502.32,-141.51 502.32,-141.51 507.16,-140.26 501.19,-137.16 512,-139 512,-139"/>
</g>
<!-- Laser&#45;&gt;Manufacturer -->
<g id="edge11" class="edge">
<title>Laser:e&#45;&gt;Manufacturer:w</title>
<path fill="none" stroke="#003049" d="M445,-219C495.29,-219 498.86,-266.94 542.95,-273.3"/>
<polygon fill="#003049" stroke="#003049" points="553,-274 542.71,-277.8 548.01,-273.65 543.02,-273.31 543.02,-273.31 543.02,-273.31 548.01,-273.65 543.33,-268.82 553,-274 553,-274"/>
</g>
<!-- phisaver -->
<g id="node3" class="node">
<title>phisaver</title>
<path fill="#fcbf49" stroke="black" stroke-width="0" d="M112,-90C112,-90 28,-90 28,-90 22,-90 16,-84 16,-78 16,-78 16,-66 16,-66 16,-60 22,-54 28,-54 28,-54 112,-54 112,-54 118,-54 124,-60 124,-66 124,-66 124,-78 124,-78 124,-84 118,-90 112,-90"/>
<text text-anchor="middle" x="70" y="-68.3" font-family="Helvetica,Arial,sans-serif" font-size="14.00" fill="#003049">Phisaver</text>
</g>
<!-- Flutter -->
<g id="node7" class="node">
<title>Flutter</title>
<path fill="#fcbf49" stroke="black" stroke-width="0" d="M256,-90C256,-90 172,-90 172,-90 166,-90 160,-84 160,-78 160,-78 160,-66 160,-66 160,-60 166,-54 172,-54 172,-54 256,-54 256,-54 262,-54 268,-60 268,-66 268,-66 268,-78 268,-78 268,-84 262,-90 256,-90"/>
<text text-anchor="middle" x="214" y="-68.3" font-family="Helvetica,Arial,sans-serif" font-size="14.00" fill="#003049">Flutter</text>
</g>
<!-- phisaver&#45;&gt;Flutter -->
<g id="edge3" class="edge">
<title>phisaver:e&#45;&gt;Flutter:w</title>
<path fill="none" stroke="#003049" d="M125,-72C136.55,-72 141.66,-72 149.9,-72"/>
<polygon fill="#003049" stroke="#003049" points="160,-72 150,-76.5 155,-72 150,-72 150,-72 150,-72 155,-72 150,-67.5 160,-72 160,-72"/>
</g>
<!-- Forecasting -->
<g id="node8" class="node">
<title>Forecasting</title>
<path fill="#fcbf49" stroke="black" stroke-width="0" d="M256,-36C256,-36 172,-36 172,-36 166,-36 160,-30 160,-24 160,-24 160,-12 160,-12 160,-6 166,0 172,0 172,0 256,0 256,0 262,0 268,-6 268,-12 268,-12 268,-24 268,-24 268,-30 262,-36 256,-36"/>
<text text-anchor="middle" x="214" y="-14.3" font-family="Helvetica,Arial,sans-serif" font-size="14.00" fill="#003049">Forecasting</text>
</g>
<!-- phisaver&#45;&gt;Forecasting -->
<g id="edge4" class="edge">
<title>phisaver:e&#45;&gt;Forecasting:w</title>
<path fill="none" stroke="#003049" d="M125,-72C149.35,-72 136.87,-32.84 150.29,-21.22"/>
<polygon fill="#003049" stroke="#003049" points="160,-18 151.92,-25.42 155.25,-19.57 150.51,-21.14 150.51,-21.14 150.51,-21.14 155.25,-19.57 149.09,-16.87 160,-18 160,-18"/>
</g>
<!-- ML -->
<g id="node9" class="node">
<title>ML</title>
<path fill="#fcbf49" stroke="black" stroke-width="0" d="M256,-198C256,-198 172,-198 172,-198 166,-198 160,-192 160,-186 160,-186 160,-174 160,-174 160,-168 166,-162 172,-162 172,-162 256,-162 256,-162 262,-162 268,-168 268,-174 268,-174 268,-186 268,-186 268,-192 262,-198 256,-198"/>
<text text-anchor="middle" x="214" y="-176.3" font-family="Helvetica,Arial,sans-serif" font-size="14.00" fill="#003049">ML</text>
</g>
<!-- phisaver&#45;&gt;ML -->
<g id="edge5" class="edge">
<title>phisaver:e&#45;&gt;ML:w</title>
<path fill="none" stroke="#003049" d="M125,-72C171.32,-72 119.57,-163.01 149.8,-177.94"/>
<polygon fill="#003049" stroke="#003049" points="160,-180 149.31,-182.43 155.1,-179.01 150.2,-178.02 150.2,-178.02 150.2,-178.02 155.1,-179.01 151.09,-173.61 160,-180 160,-180"/>
</g>
<!-- FASTAI -->
<g id="node5" class="node">
<title>FASTAI</title>
<path fill="#fcbf49" stroke="black" stroke-width="0" d="M256,-144C256,-144 172,-144 172,-144 166,-144 160,-138 160,-132 160,-132 160,-120 160,-120 160,-114 166,-108 172,-108 172,-108 256,-108 256,-108 262,-108 268,-114 268,-120 268,-120 268,-132 268,-132 268,-138 262,-144 256,-144"/>
<text text-anchor="middle" x="214" y="-122.3" font-family="Helvetica,Arial,sans-serif" font-size="14.00" fill="#003049">FASTAI</text>
</g>
<!-- Thesis -->
<g id="node6" class="node">
<title>Thesis</title>
<path fill="#fcbf49" stroke="black" stroke-width="0" d="M432,-136C432,-136 348,-136 348,-136 342,-136 336,-130 336,-124 336,-124 336,-112 336,-112 336,-106 342,-100 348,-100 348,-100 432,-100 432,-100 438,-100 444,-106 444,-112 444,-112 444,-124 444,-124 444,-130 438,-136 432,-136"/>
<text text-anchor="middle" x="390" y="-114.3" font-family="Helvetica,Arial,sans-serif" font-size="14.00" fill="#003049">Thesis</text>
</g>
<!-- FASTAI&#45;&gt;Thesis -->
<g id="edge1" class="edge">
<title>FASTAI:e&#45;&gt;Thesis:w</title>
<path fill="none" stroke="#003049" d="M268,-126C294.24,-126 302.9,-119.88 324.74,-118.34"/>
<polygon fill="#003049" stroke="#003049" points="335,-118 325.16,-122.83 330,-118.17 325.01,-118.33 325.01,-118.33 325.01,-118.33 330,-118.17 324.85,-113.84 335,-118 335,-118"/>
</g>
<!-- Thesis&#45;&gt;Project -->
<g id="edge2" class="edge">
<title>Thesis:e&#45;&gt;Project:w</title>
<path fill="none" stroke="#003049" d="M445,-118C478.7,-118 489.57,-116.37 518.81,-116.05"/>
<polygon fill="#003049" stroke="#003049" points="529,-116 519.02,-120.55 524,-116.03 519,-116.05 519,-116.05 519,-116.05 524,-116.03 518.98,-111.55 529,-116 529,-116"/>
</g>
<!-- Flutter&#45;&gt;Project -->
<g id="edge7" class="edge">
<title>Flutter:e&#45;&gt;Project:w</title>
<path fill="none" stroke="#003049" d="M268,-72C364.37,-72 391.86,-62.76 484,-91 502.11,-96.55 505.4,-110.05 518.98,-114.53"/>
<polygon fill="#003049" stroke="#003049" points="529,-116 518.45,-119 524.05,-115.27 519.11,-114.55 519.11,-114.55 519.11,-114.55 524.05,-115.27 519.76,-110.1 529,-116 529,-116"/>
</g>
<!-- Flutter&#45;&gt;Thesis -->
<g id="edge8" class="edge">
<title>Flutter:e&#45;&gt;Thesis:w</title>
<path fill="none" stroke="#003049" d="M268,-72C300.31,-72 299.52,-108.81 324.85,-116.57"/>
<polygon fill="#003049" stroke="#003049" points="335,-118 324.47,-121.06 330.05,-117.3 325.1,-116.61 325.1,-116.61 325.1,-116.61 330.05,-117.3 325.72,-112.15 335,-118 335,-118"/>
</g>
<!-- Forecasting&#45;&gt;Project -->
<g id="edge6" class="edge">
<title>Forecasting:e&#45;&gt;Project:w</title>
<path fill="none" stroke="#003049" d="M268,-18C324.06,-18 455.01,-65.56 518.97,-70.57"/>
<polygon fill="#003049" stroke="#003049" points="529,-71 518.82,-75.07 524,-70.79 519.01,-70.58 519.01,-70.58 519.01,-70.58 524,-70.79 519.2,-66.08 529,-71 529,-71"/>
</g>
<!-- ML&#45;&gt;Project -->
<g id="edge9" class="edge">
<title>ML:e&#45;&gt;Project:w</title>
<path fill="none" stroke="#003049" d="M268,-180C365.25,-180 388.42,-162.97 484,-145 492.4,-143.42 496.41,-141.25 501.99,-140"/>
<polygon fill="#003049" stroke="#003049" points="512,-139 502.5,-144.48 507.02,-139.5 502.05,-140 502.05,-140 502.05,-140 507.02,-139.5 501.6,-135.52 512,-139 512,-139"/>
</g>
</g>
</svg>
