<?xml version="1.0" encoding="UTF-8" standalone="no"?>
<!DOCTYPE svg PUBLIC "-//W3C//DTD SVG 1.1//EN"
 "http://www.w3.org/Graphics/SVG/1.1/DTD/svg11.dtd">
<!-- Generated by graphviz version 7.1.0 (20230122.1345)
 -->
<!-- Title: A Pages: 1 -->
<svg width="711pt" height="353pt"
 viewBox="0.00 0.00 711.00 353.00" xmlns="http://www.w3.org/2000/svg" xmlns:xlink="http://www.w3.org/1999/xlink">
<g id="graph0" class="graph" transform="scale(1 1) rotate(0) translate(4 349)">
<title>A</title>
<polygon fill="white" stroke="none" points="-4,4 -4,-349 707,-349 707,4 -4,4"/>
<g id="clust1" class="cluster">
<title>clusterBusiness</title>
<path fill="#fdfcdc" stroke="black" stroke-width="0" d="M308,-193C308,-193 471,-193 471,-193 477,-193 483,-199 483,-205 483,-205 483,-310 483,-310 483,-316 477,-322 471,-322 471,-322 308,-322 308,-322 302,-322 296,-316 296,-310 296,-310 296,-205 296,-205 296,-199 302,-193 308,-193"/>
<text text-anchor="middle" x="389.5" y="-306.8" font-family="Helvetica,Arial,sans-serif" font-size="14.00" fill="#003049">Business/Marketing/Finance</text>
</g>
<g id="clust2" class="cluster">
<title>clusterIntern</title>
<path fill="#fdfcdc" stroke="black" stroke-width="0" d="M20,-73C20,-73 120,-73 120,-73 126,-73 132,-79 132,-85 132,-85 132,-190 132,-190 132,-196 126,-202 120,-202 120,-202 20,-202 20,-202 14,-202 8,-196 8,-190 8,-190 8,-85 8,-85 8,-79 14,-73 20,-73"/>
<text text-anchor="middle" x="70" y="-186.8" font-family="Helvetica,Arial,sans-serif" font-size="14.00" fill="#003049">Intership</text>
</g>
<!-- Drone -->
<g id="node1" class="node">
<title>Drone</title>
<path fill="#fcbf49" stroke="black" stroke-width="0" d="M431,-291C431,-291 347,-291 347,-291 341,-291 335,-285 335,-279 335,-279 335,-267 335,-267 335,-261 341,-255 347,-255 347,-255 431,-255 431,-255 437,-255 443,-261 443,-267 443,-267 443,-279 443,-279 443,-285 437,-291 431,-291"/>
<text text-anchor="middle" x="389" y="-269.3" font-family="Helvetica,Arial,sans-serif" font-size="14.00" fill="#003049">Drone</text>
</g>
<!-- Project -->
<g id="node5" class="node">
<title>Project</title>
<path fill="#fdfcdc" stroke="black" stroke-width="0" d="M691,-237C691,-237 523,-237 523,-237 517,-237 511,-231 511,-225 511,-225 511,-51 511,-51 511,-45 517,-39 523,-39 523,-39 691,-39 691,-39 697,-39 703,-45 703,-51 703,-51 703,-225 703,-225 703,-231 697,-237 691,-237"/>
<text text-anchor="start" x="585.5" y="-201.8" font-family="Helvetica,Arial,sans-serif" font-size="14.00" fill="#003049">Project</text>
<path fill="#fcbf49" stroke="none" d="M540.67,-143C540.67,-143 673.33,-143 673.33,-143 679.17,-143 685,-148.83 685,-154.67 685,-154.67 685,-166.33 685,-166.33 685,-172.17 679.17,-178 673.33,-178 673.33,-178 540.67,-178 540.67,-178 534.83,-178 529,-172.17 529,-166.33 529,-166.33 529,-154.67 529,-154.67 529,-148.83 534.83,-143 540.67,-143"/>
<text text-anchor="start" x="564.5" y="-156.8" font-family="Helvetica,Arial,sans-serif" font-size="14.00" fill="#003049">Information AI</text>
<path fill="#fcbf49" stroke="none" d="M540.67,-98C540.67,-98 673.33,-98 673.33,-98 679.17,-98 685,-103.83 685,-109.67 685,-109.67 685,-121.33 685,-121.33 685,-127.17 679.17,-133 673.33,-133 673.33,-133 540.67,-133 540.67,-133 534.83,-133 529,-127.17 529,-121.33 529,-121.33 529,-109.67 529,-109.67 529,-103.83 534.83,-98 540.67,-98"/>
<text text-anchor="start" x="539" y="-111.8" font-family="Helvetica,Arial,sans-serif" font-size="14.00" fill="#003049">3D vision&#45; modeling AI</text>
<path fill="#fcbf49" stroke="none" d="M540.67,-53C540.67,-53 673.33,-53 673.33,-53 679.17,-53 685,-58.83 685,-64.67 685,-64.67 685,-76.33 685,-76.33 685,-82.17 679.17,-88 673.33,-88 673.33,-88 540.67,-88 540.67,-88 534.83,-88 529,-82.17 529,-76.33 529,-76.33 529,-64.67 529,-64.67 529,-58.83 534.83,-53 540.67,-53"/>
<text text-anchor="start" x="569" y="-66.8" font-family="Helvetica,Arial,sans-serif" font-size="14.00" fill="#003049">Trading Algo</text>
</g>
<!-- Drone&#45;&gt;Project -->
<g id="edge13" class="edge">
<title>Drone:e&#45;&gt;Project:w</title>
<path fill="none" stroke="#f77f00" d="M444,-273C465.08,-273 470.93,-263.29 483,-246 509.17,-208.52 468.74,-148.36 501.12,-139.19"/>
<polygon fill="#f77f00" stroke="#f77f00" points="511,-138 501.61,-143.66 506.04,-138.6 501.07,-139.19 501.07,-139.19 501.07,-139.19 506.04,-138.6 500.53,-134.73 511,-138 511,-138"/>
</g>
<!-- Manufacturer -->
<g id="node11" class="node">
<title>Manufacturer</title>
<path fill="#fcbf49" stroke="black" stroke-width="0" d="M649,-291C649,-291 565,-291 565,-291 559,-291 553,-285 553,-279 553,-279 553,-267 553,-267 553,-261 559,-255 565,-255 565,-255 649,-255 649,-255 655,-255 661,-261 661,-267 661,-267 661,-279 661,-279 661,-285 655,-291 649,-291"/>
<text text-anchor="middle" x="607" y="-269.3" font-family="Helvetica,Arial,sans-serif" font-size="14.00" fill="#003049">Manufacturer</text>
</g>
<!-- Drone&#45;&gt;Manufacturer -->
<g id="edge15" class="edge">
<title>Drone:e&#45;&gt;Manufacturer:w</title>
<path fill="none" stroke="#f77f00" d="M444,-273C488.53,-273 502.08,-273 542.13,-273"/>
<polygon fill="#f77f00" stroke="#f77f00" points="552,-273 542,-277.5 547,-273 542,-273 542,-273 542,-273 547,-273 542,-268.5 552,-273 552,-273"/>
</g>
<!-- Plane -->
<g id="node12" class="node">
<title>Plane</title>
<path fill="#fcbf49" stroke="black" stroke-width="0" d="M649,-345C649,-345 565,-345 565,-345 559,-345 553,-339 553,-333 553,-333 553,-321 553,-321 553,-315 559,-309 565,-309 565,-309 649,-309 649,-309 655,-309 661,-315 661,-321 661,-321 661,-333 661,-333 661,-339 655,-345 649,-345"/>
<text text-anchor="middle" x="607" y="-323.3" font-family="Helvetica,Arial,sans-serif" font-size="14.00" fill="#003049">Plane</text>
</g>
<!-- Drone&#45;&gt;Plane -->
<g id="edge14" class="edge">
<title>Drone:e&#45;&gt;Plane:w</title>
<path fill="none" stroke="#f77f00" d="M444,-273C494.21,-273 498.03,-320.26 542.26,-326.36"/>
<polygon fill="#f77f00" stroke="#f77f00" points="552,-327 541.72,-330.83 547.01,-326.67 542.02,-326.34 542.02,-326.34 542.02,-326.34 547.01,-326.67 542.32,-321.85 552,-327 552,-327"/>
</g>
<!-- Laser -->
<g id="node2" class="node">
<title>Laser</title>
<path fill="#fcbf49" stroke="black" stroke-width="0" d="M431,-237C431,-237 347,-237 347,-237 341,-237 335,-231 335,-225 335,-225 335,-213 335,-213 335,-207 341,-201 347,-201 347,-201 431,-201 431,-201 437,-201 443,-207 443,-213 443,-213 443,-225 443,-225 443,-231 437,-237 431,-237"/>
<text text-anchor="middle" x="389" y="-215.3" font-family="Helvetica,Arial,sans-serif" font-size="14.00" fill="#003049">Laser</text>
</g>
<!-- Laser&#45;&gt;Project -->
<g id="edge11" class="edge">
<title>Laser:e&#45;&gt;Project:w</title>
<path fill="none" stroke="#f77f00" d="M444,-219C468.2,-219 467.64,-199.7 483,-181 494.88,-166.55 490.76,-146.87 501.49,-140.27"/>
<polygon fill="#f77f00" stroke="#f77f00" points="511,-138 502.32,-144.7 506.14,-139.16 501.27,-140.32 501.27,-140.32 501.27,-140.32 506.14,-139.16 500.23,-135.94 511,-138 511,-138"/>
</g>
<!-- Laser&#45;&gt;Manufacturer -->
<g id="edge12" class="edge">
<title>Laser:e&#45;&gt;Manufacturer:w</title>
<path fill="none" stroke="#f77f00" d="M444,-219C494.21,-219 498.03,-266.26 542.26,-272.36"/>
<polygon fill="#f77f00" stroke="#f77f00" points="552,-273 541.72,-276.83 547.01,-272.67 542.02,-272.34 542.02,-272.34 542.02,-272.34 547.01,-272.67 542.32,-267.85 552,-273 552,-273"/>
</g>
<!-- phisaver -->
<g id="node3" class="node">
<title>phisaver</title>
<path fill="#fcbf49" stroke="black" stroke-width="0" d="M112,-117C112,-117 28,-117 28,-117 22,-117 16,-111 16,-105 16,-105 16,-93 16,-93 16,-87 22,-81 28,-81 28,-81 112,-81 112,-81 118,-81 124,-87 124,-93 124,-93 124,-105 124,-105 124,-111 118,-117 112,-117"/>
<text text-anchor="middle" x="70" y="-95.3" font-family="Helvetica,Arial,sans-serif" font-size="14.00" fill="#003049">Phisaver</text>
</g>
<!-- Flutter -->
<g id="node8" class="node">
<title>Flutter</title>
<path fill="#fcbf49" stroke="black" stroke-width="0" d="M256,-90C256,-90 172,-90 172,-90 166,-90 160,-84 160,-78 160,-78 160,-66 160,-66 160,-60 166,-54 172,-54 172,-54 256,-54 256,-54 262,-54 268,-60 268,-66 268,-66 268,-78 268,-78 268,-84 262,-90 256,-90"/>
<text text-anchor="middle" x="214" y="-68.3" font-family="Helvetica,Arial,sans-serif" font-size="14.00" fill="#003049">Flutter</text>
</g>
<!-- phisaver&#45;&gt;Flutter -->
<g id="edge3" class="edge">
<title>phisaver:e&#45;&gt;Flutter:w</title>
<path fill="none" stroke="#f77f00" d="M125,-99C140.66,-99 141.11,-81.85 150.59,-74.89"/>
<polygon fill="#f77f00" stroke="#f77f00" points="160,-72 151.76,-79.24 155.22,-73.47 150.44,-74.94 150.44,-74.94 150.44,-74.94 155.22,-73.47 149.12,-70.63 160,-72 160,-72"/>
</g>
<!-- Forecasting -->
<g id="node9" class="node">
<title>Forecasting</title>
<path fill="#fcbf49" stroke="black" stroke-width="0" d="M256,-36C256,-36 172,-36 172,-36 166,-36 160,-30 160,-24 160,-24 160,-12 160,-12 160,-6 166,0 172,0 172,0 256,0 256,0 262,0 268,-6 268,-12 268,-12 268,-24 268,-24 268,-30 262,-36 256,-36"/>
<text text-anchor="middle" x="214" y="-14.3" font-family="Helvetica,Arial,sans-serif" font-size="14.00" fill="#003049">Forecasting</text>
</g>
<!-- phisaver&#45;&gt;Forecasting -->
<g id="edge4" class="edge">
<title>phisaver:e&#45;&gt;Forecasting:w</title>
<path fill="none" stroke="#f77f00" d="M125,-99C160.23,-99 128.75,-33.62 150.44,-20.34"/>
<polygon fill="#f77f00" stroke="#f77f00" points="160,-18 151.35,-24.74 155.14,-19.19 150.29,-20.37 150.29,-20.37 150.29,-20.37 155.14,-19.19 149.22,-16 160,-18 160,-18"/>
</g>
<!-- ML -->
<g id="node10" class="node">
<title>ML</title>
<path fill="#fcbf49" stroke="black" stroke-width="0" d="M256,-198C256,-198 172,-198 172,-198 166,-198 160,-192 160,-186 160,-186 160,-174 160,-174 160,-168 166,-162 172,-162 172,-162 256,-162 256,-162 262,-162 268,-168 268,-174 268,-174 268,-186 268,-186 268,-192 262,-198 256,-198"/>
<text text-anchor="middle" x="214" y="-176.3" font-family="Helvetica,Arial,sans-serif" font-size="14.00" fill="#003049">ML</text>
</g>
<!-- phisaver&#45;&gt;ML -->
<g id="edge5" class="edge">
<title>phisaver:e&#45;&gt;ML:w</title>
<path fill="none" stroke="#f77f00" d="M125,-99C160.23,-99 128.75,-164.38 150.44,-177.66"/>
<polygon fill="#f77f00" stroke="#f77f00" points="160,-180 149.22,-182 155.14,-178.81 150.29,-177.63 150.29,-177.63 150.29,-177.63 155.14,-178.81 151.35,-173.26 160,-180 160,-180"/>
</g>
<!-- xplainable -->
<g id="node4" class="node">
<title>xplainable</title>
<path fill="#fcbf49" stroke="black" stroke-width="0" d="M112,-171C112,-171 28,-171 28,-171 22,-171 16,-165 16,-159 16,-159 16,-147 16,-147 16,-141 22,-135 28,-135 28,-135 112,-135 112,-135 118,-135 124,-141 124,-147 124,-147 124,-159 124,-159 124,-165 118,-171 112,-171"/>
<text text-anchor="middle" x="70" y="-149.3" font-family="Helvetica,Arial,sans-serif" font-size="14.00" fill="#003049">Xplainable</text>
</g>
<!-- xplainable&#45;&gt;ML -->
<g id="edge9" class="edge">
<title>xplainable:e&#45;&gt;ML:w</title>
<path fill="none" stroke="#f77f00" d="M125,-153C140.66,-153 141.11,-170.15 150.59,-177.11"/>
<polygon fill="#f77f00" stroke="#f77f00" points="160,-180 149.12,-181.37 155.22,-178.53 150.44,-177.06 150.44,-177.06 150.44,-177.06 155.22,-178.53 151.76,-172.76 160,-180 160,-180"/>
</g>
<!-- FASTAI -->
<g id="node6" class="node">
<title>FASTAI</title>
<path fill="#fcbf49" stroke="black" stroke-width="0" d="M256,-144C256,-144 172,-144 172,-144 166,-144 160,-138 160,-132 160,-132 160,-120 160,-120 160,-114 166,-108 172,-108 172,-108 256,-108 256,-108 262,-108 268,-114 268,-120 268,-120 268,-132 268,-132 268,-138 262,-144 256,-144"/>
<text text-anchor="middle" x="214" y="-122.3" font-family="Helvetica,Arial,sans-serif" font-size="14.00" fill="#003049">FASTAI</text>
</g>
<!-- Thesis -->
<g id="node7" class="node">
<title>Thesis</title>
<path fill="#fcbf49" stroke="black" stroke-width="0" d="M431,-136C431,-136 347,-136 347,-136 341,-136 335,-130 335,-124 335,-124 335,-112 335,-112 335,-106 341,-100 347,-100 347,-100 431,-100 431,-100 437,-100 443,-106 443,-112 443,-112 443,-124 443,-124 443,-130 437,-136 431,-136"/>
<text text-anchor="middle" x="389" y="-114.3" font-family="Helvetica,Arial,sans-serif" font-size="14.00" fill="#003049">Thesis</text>
</g>
<!-- FASTAI&#45;&gt;Thesis -->
<g id="edge1" class="edge">
<title>FASTAI:e&#45;&gt;Thesis:w</title>
<path fill="none" stroke="#f77f00" d="M268,-126C293.97,-126 302.45,-119.82 324.18,-118.32"/>
<polygon fill="#f77f00" stroke="#f77f00" points="334,-118 324.15,-122.83 329,-118.16 324.01,-118.33 324.01,-118.33 324.01,-118.33 329,-118.16 323.86,-113.83 334,-118 334,-118"/>
</g>
<!-- Thesis&#45;&gt;Project -->
<g id="edge2" class="edge">
<title>Thesis:e&#45;&gt;Project:w</title>
<path fill="none" stroke="#f77f00" d="M444,-118C477.85,-118 488.66,-115.54 518.19,-115.07"/>
<polygon fill="#f77f00" stroke="#f77f00" points="528,-115 518.03,-119.58 523,-115.04 518,-115.08 518,-115.08 518,-115.08 523,-115.04 517.97,-110.58 528,-115 528,-115"/>
</g>
<!-- Flutter&#45;&gt;Project -->
<g id="edge7" class="edge">
<title>Flutter:e&#45;&gt;Project:w</title>
<path fill="none" stroke="#f77f00" d="M268,-72C363.93,-72 391.05,-63.66 483,-91 501.16,-96.4 504.57,-109.54 518.43,-113.71"/>
<polygon fill="#f77f00" stroke="#f77f00" points="528,-115 517.49,-118.12 523.04,-114.33 518.09,-113.66 518.09,-113.66 518.09,-113.66 523.04,-114.33 518.69,-109.2 528,-115 528,-115"/>
</g>
<!-- Flutter&#45;&gt;Thesis -->
<g id="edge8" class="edge">
<title>Flutter:e&#45;&gt;Thesis:w</title>
<path fill="none" stroke="#f77f00" d="M268,-72C300.12,-72 298.94,-109.13 324.3,-116.67"/>
<polygon fill="#f77f00" stroke="#f77f00" points="334,-118 323.48,-121.1 329.05,-117.32 324.09,-116.64 324.09,-116.64 324.09,-116.64 329.05,-117.32 324.7,-112.19 334,-118 334,-118"/>
</g>
<!-- Forecasting&#45;&gt;Project -->
<g id="edge6" class="edge">
<title>Forecasting:e&#45;&gt;Project:w</title>
<path fill="none" stroke="#f77f00" d="M268,-18C323.93,-18 454.85,-64.85 518.4,-69.61"/>
<polygon fill="#f77f00" stroke="#f77f00" points="528,-70 517.83,-74.09 523,-69.8 518.01,-69.6 518.01,-69.6 518.01,-69.6 523,-69.8 518.19,-65.1 528,-70 528,-70"/>
</g>
<!-- ML&#45;&gt;Project -->
<g id="edge10" class="edge">
<title>ML:e&#45;&gt;Project:w</title>
<path fill="none" stroke="#f77f00" d="M268,-180C364.81,-180 388.18,-164.54 483,-145 491.64,-143.22 495.57,-140.58 501.35,-139.1"/>
<polygon fill="#f77f00" stroke="#f77f00" points="511,-138 501.58,-143.61 506.03,-138.57 501.06,-139.14 501.06,-139.14 501.06,-139.14 506.03,-138.57 500.55,-134.66 511,-138 511,-138"/>
</g>
</g>
</svg>
