<?xml version="1.0" encoding="UTF-8" standalone="no"?>
<!DOCTYPE svg PUBLIC "-//W3C//DTD SVG 1.1//EN"
 "http://www.w3.org/Graphics/SVG/1.1/DTD/svg11.dtd">
<!-- Generated by graphviz version 7.1.0 (20230122.1345)
 -->
<!-- Title: G Pages: 1 -->
<svg width="349pt" height="188pt"
 viewBox="0.00 0.00 349.29 188.00" xmlns="http://www.w3.org/2000/svg" xmlns:xlink="http://www.w3.org/1999/xlink">
<g id="graph0" class="graph" transform="scale(1 1) rotate(0) translate(4 184)">
<title>G</title>
<polygon fill="white" stroke="none" points="-4,4 -4,-184 345.29,-184 345.29,4 -4,4"/>
<!-- phosaver -->
<g id="node1" class="node">
<title>phosaver</title>
<ellipse fill="none" stroke="black" cx="53.3" cy="-162" rx="53.09" ry="18"/>
<text text-anchor="middle" x="53.3" y="-158.3" font-family="Times,serif" font-size="14.00">phosaver</text>
</g>
<!-- flutter -->
<g id="node2" class="node">
<title>flutter</title>
<ellipse fill="none" stroke="black" cx="53.3" cy="-90" rx="40.09" ry="18"/>
<text text-anchor="middle" x="53.3" y="-86.3" font-family="Times,serif" font-size="14.00">flutter</text>
</g>
<!-- phosaver&#45;&#45;flutter -->
<g id="edge1" class="edge">
<title>phosaver&#45;&#45;flutter</title>
<path fill="none" stroke="black" d="M53.3,-143.7C53.3,-132.85 53.3,-118.92 53.3,-108.1"/>
</g>
<!-- APP -->
<g id="node5" class="node">
<title>APP</title>
<ellipse fill="none" stroke="black" cx="109.3" cy="-18" rx="29.8" ry="18"/>
<text text-anchor="middle" x="109.3" y="-14.3" font-family="Times,serif" font-size="14.00">APP</text>
</g>
<!-- flutter&#45;&#45;APP -->
<g id="edge4" class="edge">
<title>flutter&#45;&#45;APP</title>
<path fill="none" stroke="black" d="M66.28,-72.76C75.46,-61.29 87.69,-46.01 96.76,-34.67"/>
</g>
<!-- ML -->
<g id="node3" class="node">
<title>ML</title>
<ellipse fill="none" stroke="black" cx="165.3" cy="-162" rx="27" ry="18"/>
<text text-anchor="middle" x="165.3" y="-158.3" font-family="Times,serif" font-size="14.00">ML</text>
</g>
<!-- 3D vision -->
<g id="node4" class="node">
<title>3D vision</title>
<ellipse fill="none" stroke="black" cx="165.3" cy="-90" rx="53.89" ry="18"/>
<text text-anchor="middle" x="165.3" y="-86.3" font-family="Times,serif" font-size="14.00">3D vision</text>
</g>
<!-- ML&#45;&#45;3D vision -->
<g id="edge2" class="edge">
<title>ML&#45;&#45;3D vision</title>
<path fill="none" stroke="black" d="M165.3,-143.7C165.3,-132.85 165.3,-118.92 165.3,-108.1"/>
</g>
<!-- 3D vision&#45;&#45;APP -->
<g id="edge3" class="edge">
<title>3D vision&#45;&#45;APP</title>
<path fill="none" stroke="black" d="M152.02,-72.41C142.84,-60.93 130.7,-45.75 121.7,-34.51"/>
</g>
<!-- Drone -->
<g id="node6" class="node">
<title>Drone</title>
<ellipse fill="none" stroke="black" cx="289.3" cy="-162" rx="38.99" ry="18"/>
<text text-anchor="middle" x="289.3" y="-158.3" font-family="Times,serif" font-size="14.00">Drone</text>
</g>
<!-- Business -->
<g id="node7" class="node">
<title>Business</title>
<ellipse fill="none" stroke="black" cx="289.3" cy="-90" rx="51.99" ry="18"/>
<text text-anchor="middle" x="289.3" y="-86.3" font-family="Times,serif" font-size="14.00">Business</text>
</g>
<!-- Drone&#45;&#45;Business -->
<g id="edge5" class="edge">
<title>Drone&#45;&#45;Business</title>
<path fill="none" stroke="black" d="M289.3,-143.7C289.3,-132.85 289.3,-118.92 289.3,-108.1"/>
</g>
</g>
</svg>
